<mxfile host="app.diagrams.net" agent="Mozilla/5.0 (Windows NT 10.0; Win64; x64) AppleWebKit/537.36 (KHTML, like Gecko) Chrome/129.0.0.0 Safari/537.36" version="24.7.17" pages="2">
  <diagram id="0d7cefc2-ccd6-e077-73ed-a8e48b0cddf6" name="Page-1">
    <mxGraphModel dx="1408" dy="748" grid="1" gridSize="10" guides="1" tooltips="1" connect="1" arrows="1" fold="1" page="1" pageScale="1" pageWidth="1169" pageHeight="827" background="none" math="0" shadow="0">
      <root>
        <mxCell id="0" />
        <mxCell id="1" parent="0" />
        <mxCell id="2" value="" style="swimlane;shadow=0;strokeColor=#4277BB;fillColor=#ffffff;fontColor=#4277BB;align=right;startSize=0;collapsible=0;strokeWidth=3;" parent="1" vertex="1">
          <mxGeometry x="178" y="74" width="813" height="680" as="geometry" />
        </mxCell>
        <mxCell id="103" style="edgeStyle=elbowEdgeStyle;rounded=0;elbow=vertical;html=1;labelBackgroundColor=#ffffff;startArrow=classic;startFill=1;startSize=4;endArrow=classic;endFill=1;endSize=4;jettySize=auto;orthogonalLoop=1;strokeColor=#4277BB;strokeWidth=2;fontSize=14;fontColor=#4277BB;" parent="2" source="76" target="77" edge="1">
          <mxGeometry relative="1" as="geometry" />
        </mxCell>
        <mxCell id="105" style="edgeStyle=elbowEdgeStyle;rounded=0;elbow=vertical;html=1;labelBackgroundColor=#ffffff;startArrow=classic;startFill=1;startSize=4;endArrow=classic;endFill=1;endSize=4;jettySize=auto;orthogonalLoop=1;strokeColor=#4277BB;strokeWidth=2;fontSize=14;fontColor=#4277BB;" parent="2" source="28" target="77" edge="1">
          <mxGeometry relative="1" as="geometry" />
        </mxCell>
        <mxCell id="106" style="edgeStyle=elbowEdgeStyle;rounded=0;elbow=vertical;html=1;entryX=0;entryY=0.522;entryPerimeter=0;labelBackgroundColor=#ffffff;startArrow=classic;startFill=1;startSize=4;endArrow=classic;endFill=1;endSize=4;jettySize=auto;orthogonalLoop=1;strokeColor=#4277BB;strokeWidth=2;fontSize=14;fontColor=#4277BB;" parent="2" source="77" target="79" edge="1">
          <mxGeometry relative="1" as="geometry" />
        </mxCell>
        <mxCell id="104" style="edgeStyle=elbowEdgeStyle;rounded=0;elbow=vertical;html=1;labelBackgroundColor=#ffffff;startArrow=classic;startFill=1;startSize=4;endArrow=classic;endFill=1;endSize=4;jettySize=auto;orthogonalLoop=1;strokeColor=#4277BB;strokeWidth=2;fontSize=14;fontColor=#4277BB;" parent="2" source="76" target="28" edge="1">
          <mxGeometry relative="1" as="geometry">
            <mxPoint x="143" y="200" as="targetPoint" />
          </mxGeometry>
        </mxCell>
        <mxCell id="6" value="Application component" style="rounded=0;html=1;shadow=0;labelBackgroundColor=none;strokeColor=none;strokeWidth=2;fillColor=#EBC01A;gradientColor=none;fontSize=12;fontColor=#4277BB;align=left;labelPosition=right;verticalLabelPosition=middle;verticalAlign=middle;spacingLeft=5;" parent="2" vertex="1">
          <mxGeometry x="21" y="530" width="20" height="10" as="geometry" />
        </mxCell>
        <mxCell id="7" value="Infrastructure services" style="rounded=0;html=1;shadow=0;labelBackgroundColor=none;strokeColor=none;strokeWidth=2;fillColor=#8DC642;gradientColor=none;fontSize=12;fontColor=#4277BB;align=left;labelPosition=right;verticalLabelPosition=middle;verticalAlign=middle;spacingLeft=5;" parent="2" vertex="1">
          <mxGeometry x="21" y="550" width="20" height="10" as="geometry" />
        </mxCell>
        <mxCell id="8" value="Management" style="rounded=0;html=1;shadow=0;labelBackgroundColor=none;strokeColor=none;strokeWidth=2;fillColor=#0DB39D;gradientColor=none;fontSize=12;fontColor=#4277BB;align=left;labelPosition=right;verticalLabelPosition=middle;verticalAlign=middle;spacingLeft=5;" parent="2" vertex="1">
          <mxGeometry x="21" y="570" width="20" height="10" as="geometry" />
        </mxCell>
        <mxCell id="9" value="Data store" style="rounded=0;html=1;shadow=0;labelBackgroundColor=none;strokeColor=none;strokeWidth=2;fillColor=#335D81;gradientColor=none;fontSize=12;fontColor=#4277BB;align=left;labelPosition=right;verticalLabelPosition=middle;verticalAlign=middle;spacingLeft=5;" parent="2" vertex="1">
          <mxGeometry x="21" y="590" width="20" height="10" as="geometry" />
        </mxCell>
        <mxCell id="13" value="LEGEND" style="text;html=1;align=left;verticalAlign=middle;fontColor=#4277BB;shadow=0;dashed=0;strokeColor=none;fillColor=none;labelBackgroundColor=none;fontStyle=1;fontSize=14;spacingLeft=0;" parent="2" vertex="1">
          <mxGeometry x="21" y="500" width="150" height="20" as="geometry" />
        </mxCell>
        <mxCell id="76" value="API&lt;div&gt;MANAGEMENT&lt;/div&gt;" style="aspect=fixed;perimeter=ellipsePerimeter;html=1;align=center;shadow=0;dashed=0;image;image=img/lib/ibm/management/api_management.svg;rounded=1;labelBackgroundColor=#ffffff;strokeColor=#666666;strokeWidth=3;fillColor=#C2952D;gradientColor=none;fontSize=14;fontColor=#4277BB;spacingTop=3;" parent="2" vertex="1">
          <mxGeometry x="130" y="60" width="60" height="60" as="geometry" />
        </mxCell>
        <mxCell id="28" value="" style="swimlane;shadow=0;strokeColor=#4277BB;fillColor=#ffffff;fontColor=#4277BB;align=right;startSize=0;collapsible=0;strokeWidth=3;" parent="2" vertex="1">
          <mxGeometry x="100" y="190" width="120" height="280" as="geometry" />
        </mxCell>
        <mxCell id="83" value="WORKLOADS" style="aspect=fixed;perimeter=ellipsePerimeter;html=1;align=center;shadow=0;dashed=0;image;image=img/lib/ibm/applications/microservice.svg;labelBackgroundColor=#ffffff;strokeColor=#666666;strokeWidth=3;fillColor=#C2952D;gradientColor=none;fontSize=12;fontColor=#4277BB;" parent="28" vertex="1">
          <mxGeometry x="19" y="38" width="82" height="60" as="geometry" />
        </mxCell>
        <mxCell id="84" value="WORKLOADS" style="aspect=fixed;perimeter=ellipsePerimeter;html=1;align=center;shadow=0;dashed=0;image;image=img/lib/ibm/applications/microservice.svg;labelBackgroundColor=#ffffff;strokeColor=#666666;strokeWidth=3;fillColor=#C2952D;gradientColor=none;fontSize=12;fontColor=#4277BB;" parent="28" vertex="1">
          <mxGeometry x="19" y="164" width="82" height="60" as="geometry" />
        </mxCell>
        <mxCell id="77" value="" style="swimlane;shadow=0;strokeColor=#4277BB;fillColor=#ffffff;fontColor=#4277BB;align=right;startSize=0;collapsible=0;strokeWidth=3;" parent="2" vertex="1">
          <mxGeometry x="315" y="57" width="137" height="483" as="geometry" />
        </mxCell>
        <mxCell id="85" value="SOFTWARE&lt;div&gt;DEFINED&lt;/div&gt;&lt;div&gt;NETWORKING&lt;/div&gt;" style="aspect=fixed;perimeter=ellipsePerimeter;html=1;align=center;shadow=0;dashed=0;image;image=img/lib/ibm/infrastructure/infrastructure_services.svg;rounded=1;labelBackgroundColor=#ffffff;strokeColor=#666666;strokeWidth=3;fillColor=#C2952D;gradientColor=none;fontSize=14;fontColor=#4277BB;" parent="77" vertex="1">
          <mxGeometry x="39" y="28" width="60" height="60" as="geometry" />
        </mxCell>
        <mxCell id="86" value="COMPUTE" style="aspect=fixed;perimeter=ellipsePerimeter;html=1;align=center;shadow=0;dashed=0;image;image=img/lib/ibm/infrastructure/dashboard.svg;rounded=1;labelBackgroundColor=#ffffff;strokeColor=#666666;strokeWidth=3;fillColor=#C2952D;gradientColor=none;fontSize=14;fontColor=#4277BB;" parent="77" vertex="1">
          <mxGeometry x="39" y="181" width="60" height="60" as="geometry" />
        </mxCell>
        <mxCell id="87" value="SOFTWARE&lt;div&gt;DEFINED&lt;/div&gt;&lt;div&gt;STORAGE&lt;/div&gt;" style="aspect=fixed;perimeter=ellipsePerimeter;html=1;align=center;shadow=0;dashed=0;image;image=img/lib/ibm/data/data_services.svg;rounded=1;labelBackgroundColor=#ffffff;strokeColor=#666666;strokeWidth=3;fillColor=#C2952D;gradientColor=none;fontSize=14;fontColor=#4277BB;" parent="77" vertex="1">
          <mxGeometry x="39" y="333" width="60" height="60" as="geometry" />
        </mxCell>
        <mxCell id="79" value="" style="swimlane;shadow=0;strokeColor=#4277BB;fillColor=#ffffff;fontColor=#4277BB;align=right;startSize=0;collapsible=0;strokeWidth=3;" parent="2" vertex="1">
          <mxGeometry x="563" y="57" width="137" height="483" as="geometry" />
        </mxCell>
        <mxCell id="92" value="BARE METAL&#xa;SERVERS" style="group;fontSize=14;fontColor=#4277BB;labelPosition=center;verticalLabelPosition=bottom;align=center;verticalAlign=top;labelBackgroundColor=#ffffff;" parent="79" vertex="1" connectable="0">
          <mxGeometry x="40" y="11" width="60" height="60" as="geometry" />
        </mxCell>
        <mxCell id="91" value="" style="aspect=fixed;perimeter=ellipsePerimeter;html=1;align=center;shadow=0;dashed=0;image;image=img/lib/ibm/miscellaneous/scalable.svg;rounded=1;labelBackgroundColor=none;strokeColor=#666666;strokeWidth=3;fillColor=#C2952D;gradientColor=none;fontSize=14;fontColor=#4277BB;" parent="92" vertex="1">
          <mxGeometry width="15" height="15" as="geometry" />
        </mxCell>
        <mxCell id="88" value="" style="aspect=fixed;perimeter=ellipsePerimeter;html=1;align=center;shadow=0;dashed=0;image;image=img/lib/ibm/data/file_repository.svg;rounded=1;labelBackgroundColor=none;strokeColor=#666666;strokeWidth=3;fillColor=#C2952D;gradientColor=none;fontSize=14;fontColor=#4277BB;" parent="92" vertex="1">
          <mxGeometry width="60" height="60" as="geometry" />
        </mxCell>
        <mxCell id="93" value="" style="group;fontSize=14;fontColor=#4277BB;labelBackgroundColor=#ffffff;" parent="79" vertex="1" connectable="0">
          <mxGeometry x="40" y="130" width="60" height="60" as="geometry" />
        </mxCell>
        <mxCell id="94" value="" style="aspect=fixed;perimeter=ellipsePerimeter;html=1;align=center;shadow=0;dashed=0;image;image=img/lib/ibm/miscellaneous/scalable.svg;rounded=1;labelBackgroundColor=none;strokeColor=#666666;strokeWidth=3;fillColor=#C2952D;gradientColor=none;fontSize=14;fontColor=#4277BB;" parent="93" vertex="1">
          <mxGeometry width="15" height="15" as="geometry" />
        </mxCell>
        <mxCell id="95" value="BARE METAL&lt;br&gt;SERVERS" style="aspect=fixed;perimeter=ellipsePerimeter;html=1;align=center;shadow=0;dashed=0;image;image=img/lib/ibm/data/file_repository.svg;rounded=1;labelBackgroundColor=none;strokeColor=#666666;strokeWidth=3;fillColor=#C2952D;gradientColor=none;fontSize=14;fontColor=#4277BB;" parent="93" vertex="1">
          <mxGeometry width="60" height="60" as="geometry" />
        </mxCell>
        <mxCell id="96" value="" style="group;fontSize=14;fontColor=#4277BB;labelBackgroundColor=#ffffff;" parent="79" vertex="1" connectable="0">
          <mxGeometry x="40" y="249" width="60" height="60" as="geometry" />
        </mxCell>
        <mxCell id="97" value="" style="aspect=fixed;perimeter=ellipsePerimeter;html=1;align=center;shadow=0;dashed=0;image;image=img/lib/ibm/miscellaneous/scalable.svg;rounded=1;labelBackgroundColor=none;strokeColor=#666666;strokeWidth=3;fillColor=#C2952D;gradientColor=none;fontSize=14;fontColor=#4277BB;" parent="96" vertex="1">
          <mxGeometry width="15" height="15" as="geometry" />
        </mxCell>
        <mxCell id="98" value="BARE METAL&lt;br&gt;SERVERS" style="aspect=fixed;perimeter=ellipsePerimeter;html=1;align=center;shadow=0;dashed=0;image;image=img/lib/ibm/data/file_repository.svg;rounded=1;labelBackgroundColor=none;strokeColor=#666666;strokeWidth=3;fillColor=#C2952D;gradientColor=none;fontSize=14;fontColor=#4277BB;" parent="96" vertex="1">
          <mxGeometry width="60" height="60" as="geometry" />
        </mxCell>
        <mxCell id="99" value="" style="group;fontSize=14;fontColor=#4277BB;labelBackgroundColor=#ffffff;" parent="79" vertex="1" connectable="0">
          <mxGeometry x="40" y="368" width="60" height="60" as="geometry" />
        </mxCell>
        <mxCell id="100" value="" style="aspect=fixed;perimeter=ellipsePerimeter;html=1;align=center;shadow=0;dashed=0;image;image=img/lib/ibm/miscellaneous/scalable.svg;rounded=1;labelBackgroundColor=none;strokeColor=#666666;strokeWidth=3;fillColor=#C2952D;gradientColor=none;fontSize=14;fontColor=#4277BB;" parent="99" vertex="1">
          <mxGeometry width="15" height="15" as="geometry" />
        </mxCell>
        <mxCell id="101" value="BARE METAL&lt;br&gt;SERVERS" style="aspect=fixed;perimeter=ellipsePerimeter;html=1;align=center;shadow=0;dashed=0;image;image=img/lib/ibm/data/file_repository.svg;rounded=1;labelBackgroundColor=none;strokeColor=#666666;strokeWidth=3;fillColor=#C2952D;gradientColor=none;fontSize=14;fontColor=#4277BB;" parent="99" vertex="1">
          <mxGeometry width="60" height="60" as="geometry" />
        </mxCell>
        <mxCell id="102" value="Scalable" style="aspect=fixed;perimeter=ellipsePerimeter;html=1;align=left;shadow=0;image;image=img/lib/ibm/miscellaneous/scalable.svg;rounded=0;labelBackgroundColor=none;strokeColor=none;strokeWidth=2;fillColor=#335D81;gradientColor=none;fontSize=12;fontColor=#4277BB;verticalAlign=middle;spacingLeft=7;labelPosition=right;verticalLabelPosition=middle;" parent="2" vertex="1">
          <mxGeometry x="24" y="608" width="15" height="15" as="geometry" />
        </mxCell>
      </root>
    </mxGraphModel>
  </diagram>
  <diagram id="tCRM9fH9O_qDoIa1R7rf" name="Halaman-2">
    <mxGraphModel dx="1050" dy="530" grid="1" gridSize="10" guides="1" tooltips="1" connect="1" arrows="1" fold="1" page="1" pageScale="1" pageWidth="827" pageHeight="1169" math="0" shadow="0">
      <root>
        <mxCell id="0" />
        <mxCell id="1" parent="0" />
        <mxCell id="qd5x7gK1-7ESjgKnqMbg-1" value="" style="rounded=0;whiteSpace=wrap;html=1;" vertex="1" parent="1">
          <mxGeometry x="796" y="30" width="120" height="60" as="geometry" />
        </mxCell>
        <mxCell id="qd5x7gK1-7ESjgKnqMbg-2" value="CU&lt;br&gt;namespace&lt;div&gt;&lt;span style=&quot;background-color: initial;&quot;&gt;nr::CU&lt;/span&gt;&amp;nbsp;&lt;/div&gt;" style="text;html=1;align=center;verticalAlign=middle;whiteSpace=wrap;rounded=0;" vertex="1" parent="1">
          <mxGeometry x="826" y="45" width="60" height="30" as="geometry" />
        </mxCell>
        <mxCell id="qd5x7gK1-7ESjgKnqMbg-3" value="UE" style="rounded=0;whiteSpace=wrap;html=1;" vertex="1" parent="1">
          <mxGeometry x="24" y="60" width="120" height="60" as="geometry" />
        </mxCell>
        <mxCell id="qd5x7gK1-7ESjgKnqMbg-4" value="w-agf" style="rounded=0;whiteSpace=wrap;html=1;" vertex="1" parent="1">
          <mxGeometry x="324" y="30" width="120" height="60" as="geometry" />
        </mxCell>
        <mxCell id="qd5x7gK1-7ESjgKnqMbg-5" value="namespace asn::ngap" style="rounded=0;whiteSpace=wrap;html=1;" vertex="1" parent="1">
          <mxGeometry x="20" y="620" width="120" height="60" as="geometry" />
        </mxCell>
        <mxCell id="qd5x7gK1-7ESjgKnqMbg-9" value="namespace&lt;div&gt;asn::f1ap&lt;/div&gt;" style="rounded=0;whiteSpace=wrap;html=1;" vertex="1" parent="1">
          <mxGeometry x="20" y="690" width="120" height="60" as="geometry" />
        </mxCell>
        <mxCell id="qd5x7gK1-7ESjgKnqMbg-10" value="ngap" style="rounded=0;whiteSpace=wrap;html=1;" vertex="1" parent="1">
          <mxGeometry x="897" y="142" width="120" height="60" as="geometry" />
        </mxCell>
        <mxCell id="qd5x7gK1-7ESjgKnqMbg-12" value="namespace&lt;div&gt;asn::rrc&lt;/div&gt;" style="rounded=0;whiteSpace=wrap;html=1;" vertex="1" parent="1">
          <mxGeometry x="20" y="760" width="120" height="60" as="geometry" />
        </mxCell>
        <mxCell id="qd5x7gK1-7ESjgKnqMbg-13" value="namespace&amp;nbsp;&lt;div&gt;nr::ue&lt;/div&gt;" style="rounded=0;whiteSpace=wrap;html=1;" vertex="1" parent="1">
          <mxGeometry x="24" y="150" width="120" height="60" as="geometry" />
        </mxCell>
        <mxCell id="qd5x7gK1-7ESjgKnqMbg-14" value="&lt;span style=&quot;background-color: initial;&quot;&gt;f1ap&lt;/span&gt;" style="rounded=0;whiteSpace=wrap;html=1;" vertex="1" parent="1">
          <mxGeometry x="384" y="142" width="120" height="60" as="geometry" />
        </mxCell>
        <mxCell id="qd5x7gK1-7ESjgKnqMbg-16" value="" style="endArrow=classic;html=1;rounded=0;exitX=0.5;exitY=1;exitDx=0;exitDy=0;entryX=0.5;entryY=0;entryDx=0;entryDy=0;" edge="1" parent="1" source="qd5x7gK1-7ESjgKnqMbg-1" target="qd5x7gK1-7ESjgKnqMbg-10">
          <mxGeometry width="50" height="50" relative="1" as="geometry">
            <mxPoint x="535" y="380" as="sourcePoint" />
            <mxPoint x="585" y="330" as="targetPoint" />
          </mxGeometry>
        </mxCell>
        <mxCell id="qd5x7gK1-7ESjgKnqMbg-20" value="namespace&amp;nbsp;&lt;div&gt;nr::ue::nas_enc&lt;/div&gt;" style="rounded=0;whiteSpace=wrap;html=1;" vertex="1" parent="1">
          <mxGeometry x="54" y="232" width="100" height="35" as="geometry" />
        </mxCell>
        <mxCell id="qd5x7gK1-7ESjgKnqMbg-21" value="" style="endArrow=classic;html=1;rounded=0;exitX=0.25;exitY=1;exitDx=0;exitDy=0;entryX=0;entryY=0.5;entryDx=0;entryDy=0;" edge="1" parent="1" target="qd5x7gK1-7ESjgKnqMbg-25">
          <mxGeometry width="50" height="50" relative="1" as="geometry">
            <mxPoint x="34" y="210" as="sourcePoint" />
            <mxPoint x="54" y="570" as="targetPoint" />
            <Array as="points">
              <mxPoint x="34" y="367" />
            </Array>
          </mxGeometry>
        </mxCell>
        <mxCell id="qd5x7gK1-7ESjgKnqMbg-22" value="" style="endArrow=classic;html=1;rounded=0;entryX=0;entryY=0.5;entryDx=0;entryDy=0;" edge="1" parent="1" target="qd5x7gK1-7ESjgKnqMbg-20">
          <mxGeometry width="50" height="50" relative="1" as="geometry">
            <mxPoint x="34" y="249" as="sourcePoint" />
            <mxPoint x="334" y="289" as="targetPoint" />
          </mxGeometry>
        </mxCell>
        <mxCell id="qd5x7gK1-7ESjgKnqMbg-23" value="namespace&amp;nbsp;&lt;div&gt;nr::ue::key&lt;/div&gt;" style="rounded=0;whiteSpace=wrap;html=1;" vertex="1" parent="1">
          <mxGeometry x="54" y="290" width="100" height="35" as="geometry" />
        </mxCell>
        <mxCell id="qd5x7gK1-7ESjgKnqMbg-24" value="" style="endArrow=classic;html=1;rounded=0;entryX=0;entryY=0.5;entryDx=0;entryDy=0;" edge="1" parent="1" target="qd5x7gK1-7ESjgKnqMbg-23">
          <mxGeometry width="50" height="50" relative="1" as="geometry">
            <mxPoint x="34" y="307" as="sourcePoint" />
            <mxPoint x="334" y="347" as="targetPoint" />
          </mxGeometry>
        </mxCell>
        <mxCell id="qd5x7gK1-7ESjgKnqMbg-25" value="namespace&amp;nbsp;&lt;div&gt;nr::ue::tun&lt;/div&gt;" style="rounded=0;whiteSpace=wrap;html=1;" vertex="1" parent="1">
          <mxGeometry x="54" y="349" width="100" height="35" as="geometry" />
        </mxCell>
        <mxCell id="qd5x7gK1-7ESjgKnqMbg-27" value="" style="endArrow=classic;html=1;rounded=0;exitX=0.5;exitY=1;exitDx=0;exitDy=0;" edge="1" parent="1" source="qd5x7gK1-7ESjgKnqMbg-3" target="qd5x7gK1-7ESjgKnqMbg-13">
          <mxGeometry width="50" height="50" relative="1" as="geometry">
            <mxPoint x="354" y="390" as="sourcePoint" />
            <mxPoint x="404" y="340" as="targetPoint" />
          </mxGeometry>
        </mxCell>
        <mxCell id="qd5x7gK1-7ESjgKnqMbg-29" value="" style="endArrow=classic;html=1;rounded=0;exitX=0.25;exitY=1;exitDx=0;exitDy=0;entryX=0;entryY=0.5;entryDx=0;entryDy=0;" edge="1" parent="1" target="qd5x7gK1-7ESjgKnqMbg-33">
          <mxGeometry width="50" height="50" relative="1" as="geometry">
            <mxPoint x="907" y="202" as="sourcePoint" />
            <mxPoint x="927" y="562" as="targetPoint" />
            <Array as="points">
              <mxPoint x="907" y="504" />
            </Array>
          </mxGeometry>
        </mxCell>
        <mxCell id="qd5x7gK1-7ESjgKnqMbg-31" value="namespace&amp;nbsp;&lt;div&gt;nr::CU::ngap_utils&lt;/div&gt;" style="rounded=0;whiteSpace=wrap;html=1;" vertex="1" parent="1">
          <mxGeometry x="927" y="223" width="100" height="35" as="geometry" />
        </mxCell>
        <mxCell id="qd5x7gK1-7ESjgKnqMbg-32" value="" style="endArrow=classic;html=1;rounded=0;entryX=0;entryY=0.5;entryDx=0;entryDy=0;" edge="1" parent="1" target="qd5x7gK1-7ESjgKnqMbg-31">
          <mxGeometry width="50" height="50" relative="1" as="geometry">
            <mxPoint x="907" y="240" as="sourcePoint" />
            <mxPoint x="1207" y="280" as="targetPoint" />
          </mxGeometry>
        </mxCell>
        <mxCell id="qd5x7gK1-7ESjgKnqMbg-33" value="interface" style="rounded=0;whiteSpace=wrap;html=1;" vertex="1" parent="1">
          <mxGeometry x="927" y="486" width="100" height="35" as="geometry" />
        </mxCell>
        <mxCell id="qd5x7gK1-7ESjgKnqMbg-34" value="f1ap" style="rounded=0;whiteSpace=wrap;html=1;" vertex="1" parent="1">
          <mxGeometry x="687" y="142" width="120" height="60" as="geometry" />
        </mxCell>
        <mxCell id="qd5x7gK1-7ESjgKnqMbg-35" value="" style="endArrow=classic;html=1;rounded=0;exitX=0.5;exitY=1;exitDx=0;exitDy=0;entryX=0.5;entryY=0;entryDx=0;entryDy=0;" edge="1" parent="1" target="qd5x7gK1-7ESjgKnqMbg-34" source="qd5x7gK1-7ESjgKnqMbg-1">
          <mxGeometry width="50" height="50" relative="1" as="geometry">
            <mxPoint x="705" y="120" as="sourcePoint" />
            <mxPoint x="445" y="330" as="targetPoint" />
          </mxGeometry>
        </mxCell>
        <mxCell id="qd5x7gK1-7ESjgKnqMbg-36" value="" style="endArrow=classic;html=1;rounded=0;exitX=0.25;exitY=1;exitDx=0;exitDy=0;entryX=0;entryY=0.5;entryDx=0;entryDy=0;" edge="1" parent="1" target="qd5x7gK1-7ESjgKnqMbg-39">
          <mxGeometry width="50" height="50" relative="1" as="geometry">
            <mxPoint x="697" y="202" as="sourcePoint" />
            <mxPoint x="717" y="562" as="targetPoint" />
            <Array as="points">
              <mxPoint x="697" y="504" />
            </Array>
          </mxGeometry>
        </mxCell>
        <mxCell id="qd5x7gK1-7ESjgKnqMbg-37" value="namespace&amp;nbsp;&lt;div&gt;nr::CU::ngap_utils&lt;/div&gt;" style="rounded=0;whiteSpace=wrap;html=1;" vertex="1" parent="1">
          <mxGeometry x="717" y="223" width="100" height="35" as="geometry" />
        </mxCell>
        <mxCell id="qd5x7gK1-7ESjgKnqMbg-38" value="" style="endArrow=classic;html=1;rounded=0;entryX=0;entryY=0.5;entryDx=0;entryDy=0;" edge="1" parent="1" target="qd5x7gK1-7ESjgKnqMbg-37">
          <mxGeometry width="50" height="50" relative="1" as="geometry">
            <mxPoint x="697" y="240" as="sourcePoint" />
            <mxPoint x="997" y="280" as="targetPoint" />
          </mxGeometry>
        </mxCell>
        <mxCell id="qd5x7gK1-7ESjgKnqMbg-39" value="interface" style="rounded=0;whiteSpace=wrap;html=1;" vertex="1" parent="1">
          <mxGeometry x="717" y="486" width="100" height="35" as="geometry" />
        </mxCell>
        <mxCell id="qd5x7gK1-7ESjgKnqMbg-41" value="sctp" style="rounded=0;whiteSpace=wrap;html=1;" vertex="1" parent="1">
          <mxGeometry x="676" y="185" width="50" height="25" as="geometry" />
        </mxCell>
        <mxCell id="qd5x7gK1-7ESjgKnqMbg-42" value="sctp" style="rounded=0;whiteSpace=wrap;html=1;" vertex="1" parent="1">
          <mxGeometry x="887" y="185" width="50" height="25" as="geometry" />
        </mxCell>
        <mxCell id="qd5x7gK1-7ESjgKnqMbg-45" value="transport" style="rounded=0;whiteSpace=wrap;html=1;" vertex="1" parent="1">
          <mxGeometry x="927" y="434" width="100" height="35" as="geometry" />
        </mxCell>
        <mxCell id="qd5x7gK1-7ESjgKnqMbg-46" value="transport" style="rounded=0;whiteSpace=wrap;html=1;" vertex="1" parent="1">
          <mxGeometry x="717" y="434" width="100" height="35" as="geometry" />
        </mxCell>
        <mxCell id="qd5x7gK1-7ESjgKnqMbg-47" value="management" style="rounded=0;whiteSpace=wrap;html=1;" vertex="1" parent="1">
          <mxGeometry x="927" y="383" width="100" height="35" as="geometry" />
        </mxCell>
        <mxCell id="qd5x7gK1-7ESjgKnqMbg-48" value="management" style="rounded=0;whiteSpace=wrap;html=1;" vertex="1" parent="1">
          <mxGeometry x="717" y="383" width="100" height="35" as="geometry" />
        </mxCell>
        <mxCell id="qd5x7gK1-7ESjgKnqMbg-49" value="" style="endArrow=classic;html=1;rounded=0;" edge="1" parent="1">
          <mxGeometry width="50" height="50" relative="1" as="geometry">
            <mxPoint x="697" y="453" as="sourcePoint" />
            <mxPoint x="717" y="453" as="targetPoint" />
          </mxGeometry>
        </mxCell>
        <mxCell id="qd5x7gK1-7ESjgKnqMbg-50" value="" style="endArrow=classic;html=1;rounded=0;" edge="1" parent="1">
          <mxGeometry width="50" height="50" relative="1" as="geometry">
            <mxPoint x="697" y="404" as="sourcePoint" />
            <mxPoint x="717" y="404" as="targetPoint" />
          </mxGeometry>
        </mxCell>
        <mxCell id="qd5x7gK1-7ESjgKnqMbg-51" value="" style="endArrow=classic;html=1;rounded=0;" edge="1" parent="1">
          <mxGeometry width="50" height="50" relative="1" as="geometry">
            <mxPoint x="908" y="403" as="sourcePoint" />
            <mxPoint x="928" y="403" as="targetPoint" />
          </mxGeometry>
        </mxCell>
        <mxCell id="qd5x7gK1-7ESjgKnqMbg-52" value="" style="endArrow=classic;html=1;rounded=0;" edge="1" parent="1">
          <mxGeometry width="50" height="50" relative="1" as="geometry">
            <mxPoint x="907" y="451" as="sourcePoint" />
            <mxPoint x="927" y="451" as="targetPoint" />
          </mxGeometry>
        </mxCell>
        <mxCell id="qd5x7gK1-7ESjgKnqMbg-53" value="" style="endArrow=classic;html=1;rounded=0;exitX=1;exitY=0.5;exitDx=0;exitDy=0;" edge="1" parent="1" source="qd5x7gK1-7ESjgKnqMbg-42">
          <mxGeometry width="50" height="50" relative="1" as="geometry">
            <mxPoint x="941" y="310" as="sourcePoint" />
            <mxPoint x="1061" y="198" as="targetPoint" />
          </mxGeometry>
        </mxCell>
        <mxCell id="qd5x7gK1-7ESjgKnqMbg-54" value="" style="endArrow=classic;html=1;rounded=0;exitX=1;exitY=0.5;exitDx=0;exitDy=0;entryX=0;entryY=0.5;entryDx=0;entryDy=0;" edge="1" parent="1" source="qd5x7gK1-7ESjgKnqMbg-41" target="qd5x7gK1-7ESjgKnqMbg-42">
          <mxGeometry width="50" height="50" relative="1" as="geometry">
            <mxPoint x="741" y="197" as="sourcePoint" />
            <mxPoint x="835" y="197" as="targetPoint" />
          </mxGeometry>
        </mxCell>
        <mxCell id="qd5x7gK1-7ESjgKnqMbg-55" value="nas" style="rounded=0;whiteSpace=wrap;html=1;" vertex="1" parent="1">
          <mxGeometry x="927" y="336" width="100" height="35" as="geometry" />
        </mxCell>
        <mxCell id="qd5x7gK1-7ESjgKnqMbg-56" value="rrctransfer" style="rounded=0;whiteSpace=wrap;html=1;" vertex="1" parent="1">
          <mxGeometry x="717" y="336" width="100" height="35" as="geometry" />
        </mxCell>
        <mxCell id="qd5x7gK1-7ESjgKnqMbg-57" value="" style="endArrow=classic;html=1;rounded=0;" edge="1" parent="1">
          <mxGeometry width="50" height="50" relative="1" as="geometry">
            <mxPoint x="697" y="357" as="sourcePoint" />
            <mxPoint x="717" y="357" as="targetPoint" />
          </mxGeometry>
        </mxCell>
        <mxCell id="qd5x7gK1-7ESjgKnqMbg-58" value="" style="endArrow=classic;html=1;rounded=0;" edge="1" parent="1">
          <mxGeometry width="50" height="50" relative="1" as="geometry">
            <mxPoint x="908" y="356" as="sourcePoint" />
            <mxPoint x="928" y="356" as="targetPoint" />
          </mxGeometry>
        </mxCell>
        <mxCell id="qd5x7gK1-7ESjgKnqMbg-59" value="context" style="rounded=0;whiteSpace=wrap;html=1;" vertex="1" parent="1">
          <mxGeometry x="926" y="284" width="100" height="35" as="geometry" />
        </mxCell>
        <mxCell id="qd5x7gK1-7ESjgKnqMbg-60" value="rrctransfer" style="rounded=0;whiteSpace=wrap;html=1;" vertex="1" parent="1">
          <mxGeometry x="716" y="284" width="100" height="35" as="geometry" />
        </mxCell>
        <mxCell id="qd5x7gK1-7ESjgKnqMbg-61" value="" style="endArrow=classic;html=1;rounded=0;" edge="1" parent="1">
          <mxGeometry width="50" height="50" relative="1" as="geometry">
            <mxPoint x="696" y="305" as="sourcePoint" />
            <mxPoint x="716" y="305" as="targetPoint" />
          </mxGeometry>
        </mxCell>
        <mxCell id="qd5x7gK1-7ESjgKnqMbg-62" value="" style="endArrow=classic;html=1;rounded=0;" edge="1" parent="1">
          <mxGeometry width="50" height="50" relative="1" as="geometry">
            <mxPoint x="907" y="304" as="sourcePoint" />
            <mxPoint x="927" y="304" as="targetPoint" />
          </mxGeometry>
        </mxCell>
        <mxCell id="qd5x7gK1-7ESjgKnqMbg-63" value="" style="endArrow=classic;html=1;rounded=0;exitX=0.25;exitY=1;exitDx=0;exitDy=0;entryX=0;entryY=0.5;entryDx=0;entryDy=0;" edge="1" parent="1" target="qd5x7gK1-7ESjgKnqMbg-66">
          <mxGeometry width="50" height="50" relative="1" as="geometry">
            <mxPoint x="382" y="201" as="sourcePoint" />
            <mxPoint x="402" y="561" as="targetPoint" />
            <Array as="points">
              <mxPoint x="382" y="503" />
            </Array>
          </mxGeometry>
        </mxCell>
        <mxCell id="qd5x7gK1-7ESjgKnqMbg-64" value="namespace&amp;nbsp;&lt;div&gt;nr::CU::ngap_utils&lt;/div&gt;" style="rounded=0;whiteSpace=wrap;html=1;" vertex="1" parent="1">
          <mxGeometry x="402" y="222" width="100" height="35" as="geometry" />
        </mxCell>
        <mxCell id="qd5x7gK1-7ESjgKnqMbg-65" value="" style="endArrow=classic;html=1;rounded=0;entryX=0;entryY=0.5;entryDx=0;entryDy=0;" edge="1" parent="1" target="qd5x7gK1-7ESjgKnqMbg-64">
          <mxGeometry width="50" height="50" relative="1" as="geometry">
            <mxPoint x="382" y="239" as="sourcePoint" />
            <mxPoint x="682" y="279" as="targetPoint" />
          </mxGeometry>
        </mxCell>
        <mxCell id="qd5x7gK1-7ESjgKnqMbg-66" value="interface" style="rounded=0;whiteSpace=wrap;html=1;" vertex="1" parent="1">
          <mxGeometry x="402" y="485" width="100" height="35" as="geometry" />
        </mxCell>
        <mxCell id="qd5x7gK1-7ESjgKnqMbg-67" value="sctp" style="rounded=0;whiteSpace=wrap;html=1;" vertex="1" parent="1">
          <mxGeometry x="361" y="184" width="50" height="25" as="geometry" />
        </mxCell>
        <mxCell id="qd5x7gK1-7ESjgKnqMbg-68" value="transport" style="rounded=0;whiteSpace=wrap;html=1;" vertex="1" parent="1">
          <mxGeometry x="402" y="433" width="100" height="35" as="geometry" />
        </mxCell>
        <mxCell id="qd5x7gK1-7ESjgKnqMbg-69" value="management" style="rounded=0;whiteSpace=wrap;html=1;" vertex="1" parent="1">
          <mxGeometry x="402" y="382" width="100" height="35" as="geometry" />
        </mxCell>
        <mxCell id="qd5x7gK1-7ESjgKnqMbg-70" value="" style="endArrow=classic;html=1;rounded=0;" edge="1" parent="1">
          <mxGeometry width="50" height="50" relative="1" as="geometry">
            <mxPoint x="382" y="452" as="sourcePoint" />
            <mxPoint x="402" y="452" as="targetPoint" />
          </mxGeometry>
        </mxCell>
        <mxCell id="qd5x7gK1-7ESjgKnqMbg-71" value="" style="endArrow=classic;html=1;rounded=0;" edge="1" parent="1">
          <mxGeometry width="50" height="50" relative="1" as="geometry">
            <mxPoint x="382" y="403" as="sourcePoint" />
            <mxPoint x="402" y="403" as="targetPoint" />
          </mxGeometry>
        </mxCell>
        <mxCell id="qd5x7gK1-7ESjgKnqMbg-72" value="" style="endArrow=classic;html=1;rounded=0;entryX=0;entryY=0.5;entryDx=0;entryDy=0;" edge="1" parent="1" target="qd5x7gK1-7ESjgKnqMbg-41">
          <mxGeometry width="50" height="50" relative="1" as="geometry">
            <mxPoint x="410" y="198" as="sourcePoint" />
            <mxPoint x="542" y="194" as="targetPoint" />
          </mxGeometry>
        </mxCell>
        <mxCell id="qd5x7gK1-7ESjgKnqMbg-73" value="rrctransfer" style="rounded=0;whiteSpace=wrap;html=1;" vertex="1" parent="1">
          <mxGeometry x="402" y="335" width="100" height="35" as="geometry" />
        </mxCell>
        <mxCell id="qd5x7gK1-7ESjgKnqMbg-74" value="" style="endArrow=classic;html=1;rounded=0;" edge="1" parent="1">
          <mxGeometry width="50" height="50" relative="1" as="geometry">
            <mxPoint x="382" y="356" as="sourcePoint" />
            <mxPoint x="402" y="356" as="targetPoint" />
          </mxGeometry>
        </mxCell>
        <mxCell id="qd5x7gK1-7ESjgKnqMbg-75" value="rrctransfer" style="rounded=0;whiteSpace=wrap;html=1;" vertex="1" parent="1">
          <mxGeometry x="401" y="283" width="100" height="35" as="geometry" />
        </mxCell>
        <mxCell id="qd5x7gK1-7ESjgKnqMbg-76" value="" style="endArrow=classic;html=1;rounded=0;" edge="1" parent="1">
          <mxGeometry width="50" height="50" relative="1" as="geometry">
            <mxPoint x="381" y="304" as="sourcePoint" />
            <mxPoint x="401" y="304" as="targetPoint" />
          </mxGeometry>
        </mxCell>
        <mxCell id="qd5x7gK1-7ESjgKnqMbg-77" value="gtp" style="rounded=0;whiteSpace=wrap;html=1;" vertex="1" parent="1">
          <mxGeometry x="995" y="70" width="120" height="60" as="geometry" />
        </mxCell>
        <mxCell id="qd5x7gK1-7ESjgKnqMbg-78" value="" style="endArrow=classic;html=1;rounded=0;exitX=0.5;exitY=1;exitDx=0;exitDy=0;entryX=0;entryY=0.5;entryDx=0;entryDy=0;" edge="1" parent="1" source="qd5x7gK1-7ESjgKnqMbg-1" target="qd5x7gK1-7ESjgKnqMbg-77">
          <mxGeometry width="50" height="50" relative="1" as="geometry">
            <mxPoint x="910" y="360" as="sourcePoint" />
            <mxPoint x="960" y="310" as="targetPoint" />
          </mxGeometry>
        </mxCell>
        <mxCell id="qd5x7gK1-7ESjgKnqMbg-79" value="rrc" style="rounded=0;whiteSpace=wrap;html=1;" vertex="1" parent="1">
          <mxGeometry x="601" y="70" width="120" height="60" as="geometry" />
        </mxCell>
        <mxCell id="qd5x7gK1-7ESjgKnqMbg-80" value="" style="endArrow=classic;html=1;rounded=0;exitX=0.5;exitY=1;exitDx=0;exitDy=0;entryX=1;entryY=0.5;entryDx=0;entryDy=0;" edge="1" parent="1" source="qd5x7gK1-7ESjgKnqMbg-1" target="qd5x7gK1-7ESjgKnqMbg-79">
          <mxGeometry width="50" height="50" relative="1" as="geometry">
            <mxPoint x="540" y="160" as="sourcePoint" />
            <mxPoint x="590" y="110" as="targetPoint" />
          </mxGeometry>
        </mxCell>
        <mxCell id="qd5x7gK1-7ESjgKnqMbg-87" value="" style="endArrow=classic;html=1;rounded=0;entryX=0;entryY=0.5;entryDx=0;entryDy=0;" edge="1" parent="1" target="qd5x7gK1-7ESjgKnqMbg-100">
          <mxGeometry width="50" height="50" relative="1" as="geometry">
            <mxPoint x="934" y="540" as="sourcePoint" />
            <mxPoint x="954" y="600" as="targetPoint" />
            <Array as="points">
              <mxPoint x="934" y="859" />
            </Array>
          </mxGeometry>
        </mxCell>
        <mxCell id="qd5x7gK1-7ESjgKnqMbg-89" value="handleAssociationSetup" style="rounded=0;whiteSpace=wrap;html=1;" vertex="1" parent="1">
          <mxGeometry x="957" y="557" width="183" height="25" as="geometry" />
        </mxCell>
        <mxCell id="qd5x7gK1-7ESjgKnqMbg-91" value="sendNgSetupRequest" style="rounded=0;whiteSpace=wrap;html=1;" vertex="1" parent="1">
          <mxGeometry x="957" y="621" width="183" height="25" as="geometry" />
        </mxCell>
        <mxCell id="qd5x7gK1-7ESjgKnqMbg-92" value="NgapTask::" style="rounded=0;whiteSpace=wrap;html=1;" vertex="1" parent="1">
          <mxGeometry x="914" y="514" width="70" height="25" as="geometry" />
        </mxCell>
        <mxCell id="qd5x7gK1-7ESjgKnqMbg-93" value="receiveNgSetupResponse" style="rounded=0;whiteSpace=wrap;html=1;" vertex="1" parent="1">
          <mxGeometry x="957" y="653" width="183" height="25" as="geometry" />
        </mxCell>
        <mxCell id="qd5x7gK1-7ESjgKnqMbg-94" value="handleAssociationShutdown" style="rounded=0;whiteSpace=wrap;html=1;" vertex="1" parent="1">
          <mxGeometry x="957" y="589" width="183" height="25" as="geometry" />
        </mxCell>
        <mxCell id="qd5x7gK1-7ESjgKnqMbg-95" value="receiveNgSetupFailure" style="rounded=0;whiteSpace=wrap;html=1;" vertex="1" parent="1">
          <mxGeometry x="957" y="686" width="183" height="25" as="geometry" />
        </mxCell>
        <mxCell id="qd5x7gK1-7ESjgKnqMbg-96" value="receiveErrorIndication" style="rounded=0;whiteSpace=wrap;html=1;" vertex="1" parent="1">
          <mxGeometry x="957" y="717" width="183" height="25" as="geometry" />
        </mxCell>
        <mxCell id="qd5x7gK1-7ESjgKnqMbg-97" value="sendErrorIndication" style="rounded=0;whiteSpace=wrap;html=1;" vertex="1" parent="1">
          <mxGeometry x="957" y="749" width="183" height="25" as="geometry" />
        </mxCell>
        <mxCell id="qd5x7gK1-7ESjgKnqMbg-98" value="receiveAmfConfigurationUpdate" style="rounded=0;whiteSpace=wrap;html=1;" vertex="1" parent="1">
          <mxGeometry x="957" y="781" width="183" height="25" as="geometry" />
        </mxCell>
        <mxCell id="qd5x7gK1-7ESjgKnqMbg-99" value="receiveOverloadStart" style="rounded=0;whiteSpace=wrap;html=1;" vertex="1" parent="1">
          <mxGeometry x="957" y="813" width="183" height="25" as="geometry" />
        </mxCell>
        <mxCell id="qd5x7gK1-7ESjgKnqMbg-100" value="receiveOverloadStop" style="rounded=0;whiteSpace=wrap;html=1;" vertex="1" parent="1">
          <mxGeometry x="957" y="846" width="183" height="25" as="geometry" />
        </mxCell>
        <mxCell id="qd5x7gK1-7ESjgKnqMbg-101" value="" style="endArrow=classic;html=1;rounded=0;" edge="1" parent="1">
          <mxGeometry width="50" height="50" relative="1" as="geometry">
            <mxPoint x="934" y="571" as="sourcePoint" />
            <mxPoint x="954" y="571" as="targetPoint" />
          </mxGeometry>
        </mxCell>
        <mxCell id="qd5x7gK1-7ESjgKnqMbg-102" value="" style="endArrow=classic;html=1;rounded=0;" edge="1" parent="1">
          <mxGeometry width="50" height="50" relative="1" as="geometry">
            <mxPoint x="934" y="601" as="sourcePoint" />
            <mxPoint x="954" y="601" as="targetPoint" />
          </mxGeometry>
        </mxCell>
        <mxCell id="qd5x7gK1-7ESjgKnqMbg-103" value="" style="endArrow=classic;html=1;rounded=0;" edge="1" parent="1">
          <mxGeometry width="50" height="50" relative="1" as="geometry">
            <mxPoint x="934" y="634" as="sourcePoint" />
            <mxPoint x="954" y="634" as="targetPoint" />
          </mxGeometry>
        </mxCell>
        <mxCell id="qd5x7gK1-7ESjgKnqMbg-104" value="" style="endArrow=classic;html=1;rounded=0;" edge="1" parent="1">
          <mxGeometry width="50" height="50" relative="1" as="geometry">
            <mxPoint x="934" y="663" as="sourcePoint" />
            <mxPoint x="954" y="663" as="targetPoint" />
          </mxGeometry>
        </mxCell>
        <mxCell id="qd5x7gK1-7ESjgKnqMbg-105" value="" style="endArrow=classic;html=1;rounded=0;" edge="1" parent="1">
          <mxGeometry width="50" height="50" relative="1" as="geometry">
            <mxPoint x="935" y="699" as="sourcePoint" />
            <mxPoint x="955" y="699" as="targetPoint" />
          </mxGeometry>
        </mxCell>
        <mxCell id="qd5x7gK1-7ESjgKnqMbg-106" value="" style="endArrow=classic;html=1;rounded=0;" edge="1" parent="1">
          <mxGeometry width="50" height="50" relative="1" as="geometry">
            <mxPoint x="934" y="731" as="sourcePoint" />
            <mxPoint x="954" y="731" as="targetPoint" />
          </mxGeometry>
        </mxCell>
        <mxCell id="qd5x7gK1-7ESjgKnqMbg-107" value="" style="endArrow=classic;html=1;rounded=0;" edge="1" parent="1">
          <mxGeometry width="50" height="50" relative="1" as="geometry">
            <mxPoint x="934" y="763" as="sourcePoint" />
            <mxPoint x="954" y="763" as="targetPoint" />
          </mxGeometry>
        </mxCell>
        <mxCell id="qd5x7gK1-7ESjgKnqMbg-108" value="" style="endArrow=classic;html=1;rounded=0;" edge="1" parent="1">
          <mxGeometry width="50" height="50" relative="1" as="geometry">
            <mxPoint x="934" y="795" as="sourcePoint" />
            <mxPoint x="954" y="795" as="targetPoint" />
          </mxGeometry>
        </mxCell>
        <mxCell id="qd5x7gK1-7ESjgKnqMbg-109" value="" style="endArrow=classic;html=1;rounded=0;" edge="1" parent="1">
          <mxGeometry width="50" height="50" relative="1" as="geometry">
            <mxPoint x="934" y="826" as="sourcePoint" />
            <mxPoint x="954" y="826" as="targetPoint" />
          </mxGeometry>
        </mxCell>
        <mxCell id="qd5x7gK1-7ESjgKnqMbg-110" value="" style="endArrow=classic;html=1;rounded=0;entryX=0;entryY=0.5;entryDx=0;entryDy=0;" edge="1" parent="1">
          <mxGeometry width="50" height="50" relative="1" as="geometry">
            <mxPoint x="716" y="540" as="sourcePoint" />
            <mxPoint x="739" y="858.5" as="targetPoint" />
            <Array as="points">
              <mxPoint x="716" y="859" />
            </Array>
          </mxGeometry>
        </mxCell>
        <mxCell id="qd5x7gK1-7ESjgKnqMbg-111" value="handleAssociationSetup" style="rounded=0;whiteSpace=wrap;html=1;" vertex="1" parent="1">
          <mxGeometry x="737" y="557" width="176" height="25" as="geometry" />
        </mxCell>
        <mxCell id="qd5x7gK1-7ESjgKnqMbg-112" value="sendNgSetupRequest" style="rounded=0;whiteSpace=wrap;html=1;" vertex="1" parent="1">
          <mxGeometry x="737" y="621" width="176" height="25" as="geometry" />
        </mxCell>
        <mxCell id="qd5x7gK1-7ESjgKnqMbg-113" value="NgapTask::" style="rounded=0;whiteSpace=wrap;html=1;" vertex="1" parent="1">
          <mxGeometry x="696" y="514" width="70" height="25" as="geometry" />
        </mxCell>
        <mxCell id="qd5x7gK1-7ESjgKnqMbg-114" value="receiveNgSetupResponse" style="rounded=0;whiteSpace=wrap;html=1;" vertex="1" parent="1">
          <mxGeometry x="737" y="653" width="176" height="25" as="geometry" />
        </mxCell>
        <mxCell id="qd5x7gK1-7ESjgKnqMbg-115" value="handleAssociationShutdown" style="rounded=0;whiteSpace=wrap;html=1;" vertex="1" parent="1">
          <mxGeometry x="737" y="589" width="176" height="25" as="geometry" />
        </mxCell>
        <mxCell id="qd5x7gK1-7ESjgKnqMbg-116" value="receiveNgSetupFailure" style="rounded=0;whiteSpace=wrap;html=1;" vertex="1" parent="1">
          <mxGeometry x="737" y="686" width="176" height="25" as="geometry" />
        </mxCell>
        <mxCell id="qd5x7gK1-7ESjgKnqMbg-117" value="receiveErrorIndication" style="rounded=0;whiteSpace=wrap;html=1;" vertex="1" parent="1">
          <mxGeometry x="737" y="717" width="176" height="25" as="geometry" />
        </mxCell>
        <mxCell id="qd5x7gK1-7ESjgKnqMbg-118" value="sendErrorIndication" style="rounded=0;whiteSpace=wrap;html=1;" vertex="1" parent="1">
          <mxGeometry x="737" y="749" width="176" height="25" as="geometry" />
        </mxCell>
        <mxCell id="qd5x7gK1-7ESjgKnqMbg-119" value="receiveAmfConfigurationUpdate" style="rounded=0;whiteSpace=wrap;html=1;" vertex="1" parent="1">
          <mxGeometry x="737" y="781" width="176" height="25" as="geometry" />
        </mxCell>
        <mxCell id="qd5x7gK1-7ESjgKnqMbg-120" value="receiveOverloadStart" style="rounded=0;whiteSpace=wrap;html=1;" vertex="1" parent="1">
          <mxGeometry x="737" y="813" width="176" height="25" as="geometry" />
        </mxCell>
        <mxCell id="qd5x7gK1-7ESjgKnqMbg-121" value="receiveOverloadStop" style="rounded=0;whiteSpace=wrap;html=1;" vertex="1" parent="1">
          <mxGeometry x="737" y="846" width="176" height="25" as="geometry" />
        </mxCell>
        <mxCell id="qd5x7gK1-7ESjgKnqMbg-122" value="" style="endArrow=classic;html=1;rounded=0;" edge="1" parent="1">
          <mxGeometry width="50" height="50" relative="1" as="geometry">
            <mxPoint x="716" y="571" as="sourcePoint" />
            <mxPoint x="736" y="571" as="targetPoint" />
          </mxGeometry>
        </mxCell>
        <mxCell id="qd5x7gK1-7ESjgKnqMbg-123" value="" style="endArrow=classic;html=1;rounded=0;" edge="1" parent="1">
          <mxGeometry width="50" height="50" relative="1" as="geometry">
            <mxPoint x="716" y="601" as="sourcePoint" />
            <mxPoint x="736" y="601" as="targetPoint" />
          </mxGeometry>
        </mxCell>
        <mxCell id="qd5x7gK1-7ESjgKnqMbg-124" value="" style="endArrow=classic;html=1;rounded=0;" edge="1" parent="1">
          <mxGeometry width="50" height="50" relative="1" as="geometry">
            <mxPoint x="716" y="634" as="sourcePoint" />
            <mxPoint x="736" y="634" as="targetPoint" />
          </mxGeometry>
        </mxCell>
        <mxCell id="qd5x7gK1-7ESjgKnqMbg-125" value="" style="endArrow=classic;html=1;rounded=0;" edge="1" parent="1">
          <mxGeometry width="50" height="50" relative="1" as="geometry">
            <mxPoint x="716" y="663" as="sourcePoint" />
            <mxPoint x="736" y="663" as="targetPoint" />
          </mxGeometry>
        </mxCell>
        <mxCell id="qd5x7gK1-7ESjgKnqMbg-126" value="" style="endArrow=classic;html=1;rounded=0;" edge="1" parent="1">
          <mxGeometry width="50" height="50" relative="1" as="geometry">
            <mxPoint x="717" y="699" as="sourcePoint" />
            <mxPoint x="737" y="699" as="targetPoint" />
          </mxGeometry>
        </mxCell>
        <mxCell id="qd5x7gK1-7ESjgKnqMbg-127" value="" style="endArrow=classic;html=1;rounded=0;" edge="1" parent="1">
          <mxGeometry width="50" height="50" relative="1" as="geometry">
            <mxPoint x="716" y="731" as="sourcePoint" />
            <mxPoint x="736" y="731" as="targetPoint" />
          </mxGeometry>
        </mxCell>
        <mxCell id="qd5x7gK1-7ESjgKnqMbg-128" value="" style="endArrow=classic;html=1;rounded=0;" edge="1" parent="1">
          <mxGeometry width="50" height="50" relative="1" as="geometry">
            <mxPoint x="716" y="763" as="sourcePoint" />
            <mxPoint x="736" y="763" as="targetPoint" />
          </mxGeometry>
        </mxCell>
        <mxCell id="qd5x7gK1-7ESjgKnqMbg-129" value="" style="endArrow=classic;html=1;rounded=0;" edge="1" parent="1">
          <mxGeometry width="50" height="50" relative="1" as="geometry">
            <mxPoint x="716" y="795" as="sourcePoint" />
            <mxPoint x="736" y="795" as="targetPoint" />
          </mxGeometry>
        </mxCell>
        <mxCell id="qd5x7gK1-7ESjgKnqMbg-130" value="" style="endArrow=classic;html=1;rounded=0;" edge="1" parent="1">
          <mxGeometry width="50" height="50" relative="1" as="geometry">
            <mxPoint x="716" y="826" as="sourcePoint" />
            <mxPoint x="736" y="826" as="targetPoint" />
          </mxGeometry>
        </mxCell>
      </root>
    </mxGraphModel>
  </diagram>
</mxfile>
